<svg xmlns="http://www.w3.org/2000/svg" width="192" height="28" viewBox="0 0 192 28"><defs><style>.a,.b{fill:#fff;}.a{font-size:20px;font-family:OPPOSans-H, OPPOSans;letter-spacing:-0.1em;}</style></defs><g transform="translate(18.66 0)"><text class="a" transform="translate(0 20)"><tspan x="0" y="0">OALA SYNC TECH</tspan></text></g><path class="b" d="M-490.362,112.426a2.274,2.274,0,0,1,.088.689,1.067,1.067,0,0,1-.978.832,1.081,1.081,0,0,1-1.1-.639,3.32,3.32,0,0,1-.061-1.044c.021-.485.348-1.069.819-1.131a1.233,1.233,0,0,1,1.134.87C-490.416,112.141-490.395,112.285-490.362,112.426Zm-.591-.569h0c-.017-.1-.031-.195-.053-.29a.478.478,0,0,0-.611-.324c-.276.05-.469.223-.427.511.027.189.062.378.1.565a.533.533,0,0,0,.608.421.536.536,0,0,0,.431-.608C-490.917,112.039-490.937,111.948-490.953,111.857Z" transform="translate(498.413 -106.192)"/><path class="b" d="M-564.1,38.318c.194.042.391.071.58.13a2.1,2.1,0,0,1,.916.6,4.034,4.034,0,0,0-2.627,3.428,1.225,1.225,0,0,1-.373-.589.354.354,0,0,1-.41-.263c-.085-.228-.157-.554-.235-.785-.005-.016-.013-.031-.019-.047l-.013-.4a.547.547,0,0,0,.017-.071,2.042,2.042,0,0,1,1.45-1.92c.1-.026.2-.047.294-.07Z" transform="translate(567.834 -37.773)"/><path class="b" d="M-466.408,29.224c.125,0,.25,0,.375.01a2.092,2.092,0,0,1,1.694,1.908,1.981,1.981,0,0,1-.091.914.307.307,0,0,1-.287.211,1.145,1.145,0,0,1-.22.612,3.624,3.624,0,0,0-1.2-1.682,3.754,3.754,0,0,0-1.859-.94c.046-.071.084-.137.129-.2a2.014,2.014,0,0,1,1.014-.735.482.482,0,0,0,.06-.029Z" transform="translate(475.444 -29.224)"/><rect class="b" width="0.85" height="1.277" rx="0.425" transform="translate(4.498 4.396) rotate(-8.726)"/><rect class="b" width="0.85" height="1.277" rx="0.425" transform="translate(7.821 3.738) rotate(-8.726)"/><path class="b" d="M-583.877,160.659a11.13,11.13,0,0,1-1.647-1.328,18.007,18.007,0,0,1-1.351-1.835,5.468,5.468,0,0,0-1.365,2.709c-.18,1.121.5,1.837,1.1,2.629a4.687,4.687,0,0,1,.806,1.612c.243.93-.422,1.525-1.358,1.289a3.352,3.352,0,0,1-.931-.391,5.821,5.821,0,0,1-1.361-1.082c-.714-.745-4.726-5.858,1.175-10.891-2.715,2.153-5.416,6.121-1.363,11.021h0a15.429,15.429,0,0,0-.72,5.133c0,.1.228.288.351.29,1.295.016,2.59-.006,3.885,0,.386,0,.481-.173.5-.529a17.251,17.251,0,0,1,.221-2.081,16.392,16.392,0,0,1,2.244-5.877C-583.462,160.973-583.6,160.859-583.877,160.659Z" transform="translate(592.238 -145.821)"/><path class="b" d="M-430.119,288.36c0,.606-.016,1.213.005,1.818.015.421-.121.555-.472.551a14.338,14.338,0,0,1-5.663-1.309,15.17,15.17,0,0,1-4.4-2.926.6.6,0,0,1-.133-.475c.524-1.15,1.073-2.284,1.622-3.419.163-.337.348-.42.646-.135a12.374,12.374,0,0,0,5.723,3.2,13.581,13.581,0,0,0,2.158.293c.386.029.535.184.52.638-.02.588,0,1.178,0,1.767Z" transform="translate(450.11 -267.01)"/><g transform="translate(8.378 2.951)"><path class="b" d="M-454.791,88.413c-.488-.753-.977-1.431-1.392-2.167a2.49,2.49,0,0,1,.562-2.862,1.55,1.55,0,0,0,.487-.48,5.767,5.767,0,0,1,2.645-2.354,14.806,14.806,0,0,1,7.015-2.123c.643-.028.675.008.674.773,0,1.1,0,2.191,0,3.286,0,.63-.038.671-.588.7a11.442,11.442,0,0,0-5.684,1.821A14.833,14.833,0,0,0-454.791,88.413Z" transform="translate(456.418 -78.421)"/><path class="b" d="M-449.774,123.945a6.823,6.823,0,0,1,2.355-2.565c1.945-1.462-.837,3.093-.837,3.093Z" transform="translate(450.173 -118.531)"/></g></svg>